<?xml version="1.0" encoding="utf-8"?>
<!-- Generator: Adobe Illustrator 23.0.0, SVG Export Plug-In . SVG Version: 6.00 Build 0)  -->
<svg version="1.1" id="레이어_1" xmlns="http://www.w3.org/2000/svg" xmlns:xlink="http://www.w3.org/1999/xlink" x="0px"
	 y="0px" viewBox="0 0 119 29" style="enable-background:new 0 0 119 29;" xml:space="preserve">
<style type="text/css">
	.st0{fill:#FFFFFF;}
	.st1{fill:#FBFF1F;}
</style>
<path class="st0" d="M75.3,17.6h-4.1v-1c0-0.5-0.1-0.8-0.2-0.9c-0.1-0.1-0.3-0.2-0.5-0.2c-0.3,0-0.5,0.1-0.6,0.3
	c-0.1,0.2-0.2,0.4-0.2,0.8c0,0.5,0.1,0.8,0.2,1c0.1,0.2,0.6,0.5,1.2,0.8c2,0.9,3.2,1.7,3.7,2.3c0.5,0.6,0.8,1.6,0.8,2.9
	c0,1-0.1,1.7-0.4,2.2c-0.3,0.5-0.8,0.9-1.6,1.2c-0.8,0.3-1.8,0.5-2.8,0.5c-1.2,0-2.2-0.2-3-0.5c-0.8-0.4-1.4-0.8-1.6-1.4
	c-0.3-0.6-0.4-1.4-0.4-2.4v-0.9h4.1V24c0,0.5,0.1,0.8,0.2,1c0.1,0.1,0.3,0.2,0.6,0.2s0.5-0.1,0.7-0.3c0.1-0.2,0.2-0.5,0.2-0.8
	c0-0.8-0.1-1.3-0.4-1.6c-0.3-0.2-1-0.7-2.1-1.2c-1.1-0.6-1.8-1-2.2-1.3c-0.4-0.3-0.7-0.6-0.9-1.1c-0.2-0.5-0.4-1.1-0.4-1.8
	c0-1.1,0.2-1.8,0.5-2.3c0.3-0.5,0.9-0.9,1.6-1.1c0.7-0.3,1.6-0.4,2.7-0.4c1.1,0,2.1,0.1,2.9,0.4c0.8,0.3,1.3,0.7,1.6,1.1
	c0.3,0.5,0.4,1.2,0.4,2.3V17.6z"/>
<path class="st0" d="M81.2,16l-0.1,1c0.4-0.4,0.8-0.7,1.2-0.9c0.5-0.2,0.9-0.3,1.5-0.3c0.7,0,1.2,0.1,1.7,0.4c0.5,0.3,0.8,0.6,0.9,1
	c0.1,0.4,0.2,1,0.2,1.9v4.7c0,1-0.1,1.7-0.2,2.2c-0.1,0.4-0.5,0.8-0.9,1c-0.5,0.3-1,0.4-1.7,0.4c-0.5,0-1-0.1-1.5-0.3
	c-0.4-0.2-0.9-0.5-1.2-0.9v2.6h-4.2V16H81.2z M82.4,19.2c0-0.7,0-1.1-0.1-1.3c-0.1-0.1-0.2-0.2-0.5-0.2c-0.3,0-0.5,0.1-0.5,0.3
	c-0.1,0.2-0.1,0.6-0.1,1.2v4.7c0,0.7,0,1.1,0.1,1.3s0.3,0.3,0.5,0.3c0.3,0,0.4-0.1,0.5-0.2c0.1-0.2,0.1-0.5,0.1-1.1V19.2z"/>
<path class="st0" d="M91.8,20.3h-4v-0.8c0-0.9,0.1-1.5,0.4-2c0.2-0.5,0.7-0.9,1.5-1.2c0.7-0.4,1.7-0.5,2.9-0.5
	c1.4,0,2.5,0.2,3.2,0.6c0.7,0.4,1.2,0.9,1.3,1.5c0.1,0.6,0.2,1.8,0.2,3.7v5.6h-4.1v-1c-0.3,0.4-0.6,0.7-1,0.9
	c-0.4,0.2-0.9,0.3-1.5,0.3c-0.7,0-1.4-0.2-2-0.5c-0.6-0.3-0.9-1.1-0.9-2.2v-0.9c0-0.8,0.2-1.4,0.5-1.7c0.3-0.3,1.1-0.7,2.4-1.1
	c1.4-0.4,2.1-0.7,2.2-0.9c0.1-0.2,0.1-0.5,0.1-0.9c0-0.6-0.1-1-0.2-1.1c-0.1-0.2-0.3-0.3-0.5-0.3c-0.3,0-0.5,0.1-0.5,0.2
	c-0.1,0.1-0.1,0.5-0.1,1.2V20.3z M93.1,21.9c-0.7,0.4-1.1,0.7-1.2,1c-0.1,0.3-0.2,0.7-0.2,1.2c0,0.6,0,1,0.1,1.1
	c0.1,0.2,0.3,0.3,0.6,0.3c0.3,0,0.4-0.1,0.5-0.2c0.1-0.1,0.1-0.5,0.1-1V21.9z"/>
<path class="st0" d="M108.2,20.2h-4v-1.3c0-0.5,0-0.8-0.1-0.9c-0.1-0.2-0.3-0.2-0.5-0.2c-0.2,0-0.4,0.1-0.5,0.2
	c-0.1,0.1-0.1,0.5-0.1,0.9v5.3c0,0.4,0.1,0.7,0.2,0.9c0.1,0.2,0.3,0.3,0.6,0.3c0.3,0,0.5-0.1,0.6-0.3c0.1-0.2,0.2-0.6,0.2-1.2v-1.3
	h3.8c0,0.9,0,1.6-0.1,2c-0.1,0.4-0.3,0.9-0.7,1.4c-0.4,0.5-0.9,0.8-1.5,1.1c-0.6,0.2-1.4,0.4-2.4,0.4c-1.2,0-2.1-0.2-2.8-0.5
	c-0.7-0.3-1.2-0.8-1.5-1.4c-0.3-0.6-0.4-1.4-0.4-2.5v-3.2c0-1,0.1-1.7,0.4-2.2c0.2-0.5,0.7-0.9,1.5-1.3c0.8-0.4,1.7-0.6,2.8-0.6
	c1.1,0,2,0.2,2.8,0.6c0.8,0.4,1.3,0.9,1.6,1.4C108,18.3,108.2,19.2,108.2,20.2z"/>
<path class="st0" d="M119,21.8h-5.5v2.4c0,0.5,0,0.8,0.1,1c0.1,0.1,0.3,0.2,0.5,0.2c0.3,0,0.5-0.1,0.6-0.3c0.1-0.2,0.2-0.6,0.2-1.1
	v-1.5h4v0.8c0,0.7-0.1,1.2-0.2,1.6s-0.4,0.8-0.8,1.2c-0.4,0.4-0.9,0.7-1.5,1c-0.6,0.2-1.4,0.3-2.3,0.3c-0.9,0-1.7-0.1-2.4-0.3
	c-0.7-0.2-1.2-0.5-1.6-0.9c-0.4-0.4-0.6-0.8-0.8-1.2c-0.1-0.4-0.2-1.1-0.2-1.9v-3.3c0-1,0.2-1.8,0.5-2.3c0.3-0.6,0.9-1,1.6-1.3
	c0.7-0.3,1.6-0.5,2.6-0.5c1.2,0,2.2,0.2,2.9,0.5c0.8,0.4,1.3,0.8,1.6,1.4c0.3,0.6,0.5,1.4,0.5,2.5V21.8z M114.8,20v-0.8
	c0-0.6,0-1-0.1-1.1c-0.1-0.2-0.2-0.3-0.5-0.3c-0.3,0-0.5,0.1-0.5,0.2c-0.1,0.1-0.1,0.5-0.1,1.2V20H114.8z"/>
<path class="st0" d="M44.6,0.2l2.1,12.5h-3.8l-0.2-2.2h-1.3l-0.2,2.2h-3.9l1.9-12.5H44.6z M42.6,8.2C42.4,6.8,42.2,5.1,42,3
	c-0.4,2.4-0.6,4.1-0.7,5.2H42.6z"/>
<path class="st0" d="M50.9,2.4l-0.1,0.9c0.3-0.4,0.6-0.7,1-0.8c0.4-0.2,0.8-0.3,1.3-0.3c0.6,0,1.1,0.1,1.5,0.4
	c0.4,0.3,0.6,0.6,0.8,1c0.1,0.4,0.2,1,0.2,1.9v7.2H52V5.6c0-0.7,0-1.1-0.1-1.3c-0.1-0.2-0.2-0.2-0.4-0.2c-0.3,0-0.4,0.1-0.5,0.3
	c-0.1,0.2-0.1,0.7-0.1,1.4v6.9h-3.6V2.4H50.9z"/>
<path class="st0" d="M65,6v2.5c0,0.9-0.1,1.6-0.2,2c-0.1,0.4-0.3,0.8-0.7,1.2c-0.4,0.4-0.8,0.6-1.3,0.8c-0.6,0.2-1.2,0.3-1.9,0.3
	c-0.8,0-1.5-0.1-2-0.2c-0.6-0.2-1-0.4-1.3-0.7c-0.3-0.3-0.5-0.7-0.7-1.1c-0.1-0.4-0.2-1.1-0.2-2V6.3c0-1,0.1-1.7,0.4-2.2
	c0.2-0.5,0.7-1,1.3-1.3c0.6-0.3,1.4-0.5,2.4-0.5c0.8,0,1.5,0.1,2.1,0.3c0.6,0.2,1,0.5,1.3,0.8c0.3,0.3,0.5,0.7,0.6,1
	C64.9,4.8,65,5.3,65,6z M61.4,5.3c0-0.5,0-0.9-0.1-1c-0.1-0.1-0.2-0.2-0.4-0.2c-0.2,0-0.4,0.1-0.4,0.2c-0.1,0.1-0.1,0.5-0.1,1v4.6
	c0,0.5,0,0.8,0.1,0.9c0.1,0.1,0.2,0.2,0.4,0.2c0.2,0,0.4-0.1,0.4-0.2c0.1-0.1,0.1-0.4,0.1-0.9V5.3z"/>
<path class="st0" d="M69.9,1.1v1.6h1v1.6h-1v5.5c0,0.7,0,1,0.1,1.1c0.1,0.1,0.4,0.1,1,0.1v1.6h-1.5c-0.8,0-1.4,0-1.8-0.1
	c-0.4-0.1-0.7-0.2-0.9-0.4c-0.3-0.2-0.4-0.5-0.5-0.7c-0.1-0.3-0.1-0.9-0.1-1.9V4.3h-0.8V2.7h0.8V1.1H69.9z"/>
<path class="st0" d="M75.3,0.2V3c0.3-0.2,0.6-0.4,1-0.6c0.4-0.1,0.7-0.2,1.2-0.2c0.6,0,1.2,0.1,1.6,0.4c0.4,0.3,0.7,0.6,0.8,1
	C80,4,80,4.7,80,5.6v7.1h-3.6V5.5c0-0.6,0-1-0.1-1.1c-0.1-0.2-0.2-0.3-0.5-0.3c-0.2,0-0.4,0.1-0.4,0.3c-0.1,0.2-0.1,0.5-0.1,1v7.3
	h-3.6V0.2H75.3z"/>
<path class="st0" d="M89.4,7.7h-4.7v2.2c0,0.5,0,0.8,0.1,0.9c0.1,0.1,0.2,0.2,0.4,0.2c0.3,0,0.5-0.1,0.5-0.3c0.1-0.2,0.1-0.5,0.1-1
	V8.4h3.4v0.8c0,0.6,0,1.1-0.1,1.5c-0.1,0.3-0.3,0.7-0.6,1.1c-0.3,0.4-0.8,0.7-1.3,0.9c-0.5,0.2-1.2,0.3-2,0.3c-0.8,0-1.4-0.1-2-0.3
	c-0.6-0.2-1-0.5-1.4-0.8c-0.3-0.3-0.5-0.7-0.7-1.1c-0.1-0.4-0.2-1-0.2-1.7V6c0-0.9,0.1-1.6,0.4-2.1c0.3-0.5,0.7-0.9,1.4-1.2
	c0.6-0.3,1.4-0.4,2.2-0.4c1,0,1.8,0.2,2.5,0.5c0.7,0.3,1.1,0.8,1.4,1.3c0.3,0.5,0.4,1.3,0.4,2.3V7.7z M85.8,6.1V5.3
	c0-0.5,0-0.9-0.1-1c-0.1-0.2-0.2-0.2-0.4-0.2c-0.2,0-0.4,0.1-0.5,0.2c-0.1,0.1-0.1,0.5-0.1,1.1v0.7H85.8z"/>
<path class="st0" d="M94.2,2.4L94,3.8c0.5-1,1.3-1.5,2.3-1.5v3.6c-0.7,0-1.1,0.1-1.5,0.2s-0.5,0.4-0.6,0.6c-0.1,0.3-0.1,0.9-0.1,1.9
	v4h-3.6V2.4H94.2z"/>
<polygon class="st0" points="11.1,14.7 11.1,3.5 0,3.5 0,14.7 0,25.8 11.1,25.8 22.2,25.8 22.2,14.7 "/>
<rect x="22.2" y="3.5" class="st1" width="11.1" height="11.1"/>
</svg>
