<?xml version="1.0" encoding="utf-8"?>
<!-- Generator: Adobe Illustrator 23.0.0, SVG Export Plug-In . SVG Version: 6.00 Build 0)  -->
<svg version="1.1" id="레이어_1" xmlns="http://www.w3.org/2000/svg" xmlns:xlink="http://www.w3.org/1999/xlink" x="0px"
	 y="0px" viewBox="0 0 119 29" style="enable-background:new 0 0 119 29;" xml:space="preserve">
<style type="text/css">
	.st0{fill:#2C3F58;}
	.st1{fill:#FBFF1F;}
</style>
<path class="st0" d="M75.3,17.8h-4.1v-1c0-0.5-0.1-0.8-0.2-0.9c-0.1-0.1-0.3-0.2-0.5-0.2c-0.3,0-0.5,0.1-0.6,0.3
	c-0.1,0.2-0.2,0.4-0.2,0.8c0,0.5,0.1,0.8,0.2,1c0.1,0.2,0.6,0.5,1.2,0.8c2,0.9,3.2,1.7,3.7,2.3c0.5,0.6,0.8,1.6,0.8,2.9
	c0,1-0.1,1.7-0.4,2.2c-0.3,0.5-0.8,0.9-1.6,1.2c-0.8,0.3-1.8,0.5-2.8,0.5c-1.2,0-2.2-0.2-3-0.5c-0.8-0.4-1.4-0.8-1.6-1.4
	c-0.3-0.6-0.4-1.4-0.4-2.4v-0.9h4.1v1.7c0,0.5,0.1,0.8,0.2,1c0.1,0.1,0.3,0.2,0.6,0.2s0.5-0.1,0.7-0.3c0.1-0.2,0.2-0.5,0.2-0.8
	c0-0.8-0.1-1.3-0.4-1.6c-0.3-0.2-1-0.7-2.1-1.2c-1.1-0.6-1.8-1-2.2-1.3c-0.4-0.3-0.7-0.6-0.9-1.1c-0.2-0.5-0.4-1.1-0.4-1.8
	c0-1.1,0.2-1.8,0.5-2.3c0.3-0.5,0.9-0.9,1.6-1.1c0.7-0.3,1.6-0.4,2.7-0.4c1.1,0,2.1,0.1,2.9,0.4c0.8,0.3,1.3,0.7,1.6,1.1
	c0.3,0.5,0.4,1.2,0.4,2.3V17.8z"/>
<path class="st0" d="M81.2,16.2l-0.1,1c0.4-0.4,0.8-0.7,1.2-0.9c0.5-0.2,0.9-0.3,1.5-0.3c0.7,0,1.2,0.1,1.7,0.4
	c0.5,0.3,0.8,0.6,0.9,1c0.1,0.4,0.2,1,0.2,1.9V24c0,1-0.1,1.7-0.2,2.2c-0.1,0.4-0.5,0.8-0.9,1c-0.5,0.3-1,0.4-1.7,0.4
	c-0.5,0-1-0.1-1.5-0.3c-0.4-0.2-0.9-0.5-1.2-0.9V29h-4.2V16.2H81.2z M82.4,19.4c0-0.7,0-1.1-0.1-1.3c-0.1-0.1-0.2-0.2-0.5-0.2
	c-0.3,0-0.5,0.1-0.5,0.3c-0.1,0.2-0.1,0.6-0.1,1.2v4.7c0,0.7,0,1.1,0.1,1.3c0.1,0.2,0.3,0.3,0.5,0.3c0.3,0,0.4-0.1,0.5-0.2
	c0.1-0.2,0.1-0.5,0.1-1.1V19.4z"/>
<path class="st0" d="M91.8,20.5h-4v-0.8c0-0.9,0.1-1.5,0.4-2c0.2-0.5,0.7-0.9,1.5-1.2c0.7-0.4,1.7-0.5,2.9-0.5
	c1.4,0,2.5,0.2,3.2,0.6c0.7,0.4,1.2,0.9,1.3,1.5c0.1,0.6,0.2,1.8,0.2,3.7v5.6h-4.1v-1c-0.3,0.4-0.6,0.7-1,0.9
	c-0.4,0.2-0.9,0.3-1.5,0.3c-0.7,0-1.4-0.2-2-0.5c-0.6-0.3-0.9-1.1-0.9-2.2V24c0-0.8,0.2-1.4,0.5-1.7c0.3-0.3,1.1-0.7,2.4-1.1
	c1.4-0.4,2.1-0.7,2.2-0.9c0.1-0.2,0.1-0.5,0.1-0.9c0-0.6-0.1-1-0.2-1.1c-0.1-0.2-0.3-0.3-0.5-0.3c-0.3,0-0.5,0.1-0.5,0.2
	c-0.1,0.1-0.1,0.5-0.1,1.2V20.5z M93.1,22.1c-0.7,0.4-1.1,0.7-1.2,1c-0.1,0.3-0.2,0.7-0.2,1.2c0,0.6,0,1,0.1,1.1
	c0.1,0.2,0.3,0.3,0.6,0.3c0.3,0,0.4-0.1,0.5-0.2c0.1-0.1,0.1-0.5,0.1-1V22.1z"/>
<path class="st0" d="M108.2,20.4h-4v-1.3c0-0.5,0-0.8-0.1-0.9c-0.1-0.2-0.3-0.2-0.5-0.2c-0.2,0-0.4,0.1-0.5,0.2
	c-0.1,0.1-0.1,0.5-0.1,0.9v5.3c0,0.4,0.1,0.7,0.2,0.9c0.1,0.2,0.3,0.3,0.6,0.3c0.3,0,0.5-0.1,0.6-0.3c0.1-0.2,0.2-0.6,0.2-1.2v-1.3
	h3.8c0,0.9,0,1.6-0.1,2c-0.1,0.4-0.3,0.9-0.7,1.4c-0.4,0.5-0.9,0.8-1.5,1.1c-0.6,0.2-1.4,0.4-2.4,0.4c-1.2,0-2.1-0.2-2.8-0.5
	c-0.7-0.3-1.2-0.8-1.5-1.4c-0.3-0.6-0.4-1.4-0.4-2.5V20c0-1,0.1-1.7,0.4-2.2c0.2-0.5,0.7-0.9,1.5-1.3c0.8-0.4,1.7-0.6,2.8-0.6
	c1.1,0,2,0.2,2.8,0.6c0.8,0.4,1.3,0.9,1.6,1.4C108,18.5,108.2,19.3,108.2,20.4z"/>
<path class="st0" d="M119,22h-5.5v2.4c0,0.5,0,0.8,0.1,1c0.1,0.1,0.3,0.2,0.5,0.2c0.3,0,0.5-0.1,0.6-0.3c0.1-0.2,0.2-0.6,0.2-1.1
	v-1.5h4v0.8c0,0.7-0.1,1.2-0.2,1.6s-0.4,0.8-0.8,1.2c-0.4,0.4-0.9,0.7-1.5,1c-0.6,0.2-1.4,0.3-2.3,0.3c-0.9,0-1.7-0.1-2.4-0.3
	c-0.7-0.2-1.2-0.5-1.6-0.9c-0.4-0.4-0.6-0.8-0.8-1.2c-0.1-0.4-0.2-1.1-0.2-1.9V20c0-1,0.2-1.8,0.5-2.3c0.3-0.6,0.9-1,1.6-1.3
	c0.7-0.3,1.6-0.5,2.6-0.5c1.2,0,2.2,0.2,2.9,0.5c0.8,0.4,1.3,0.8,1.6,1.4c0.3,0.6,0.5,1.4,0.5,2.5V22z M114.8,20.2v-0.8
	c0-0.6,0-1-0.1-1.1c-0.1-0.2-0.2-0.3-0.5-0.3c-0.3,0-0.5,0.1-0.5,0.2c-0.1,0.1-0.1,0.5-0.1,1.2v0.8H114.8z"/>
<path class="st0" d="M44.6,0.4l2.1,12.5h-3.8l-0.2-2.2h-1.3l-0.2,2.2h-3.9l1.9-12.5H44.6z M42.6,8.4C42.4,7,42.2,5.2,42,3.2
	c-0.4,2.4-0.6,4.1-0.7,5.2H42.6z"/>
<path class="st0" d="M50.9,2.6l-0.1,0.9c0.3-0.4,0.6-0.7,1-0.8c0.4-0.2,0.8-0.3,1.3-0.3c0.6,0,1.1,0.1,1.5,0.4
	c0.4,0.3,0.6,0.6,0.8,1c0.1,0.4,0.2,1,0.2,1.9v7.2H52V5.8c0-0.7,0-1.1-0.1-1.3c-0.1-0.2-0.2-0.2-0.4-0.2c-0.3,0-0.4,0.1-0.5,0.3
	c-0.1,0.2-0.1,0.7-0.1,1.4v6.9h-3.6V2.6H50.9z"/>
<path class="st0" d="M65,6.2v2.5c0,0.9-0.1,1.6-0.2,2c-0.1,0.4-0.3,0.8-0.7,1.2c-0.4,0.4-0.8,0.6-1.3,0.8C62.2,13,61.6,13,60.9,13
	c-0.8,0-1.5-0.1-2-0.2c-0.6-0.2-1-0.4-1.3-0.7c-0.3-0.3-0.5-0.7-0.7-1.1c-0.1-0.4-0.2-1.1-0.2-2V6.4c0-1,0.1-1.7,0.4-2.2
	c0.2-0.5,0.7-1,1.3-1.3c0.6-0.3,1.4-0.5,2.4-0.5c0.8,0,1.5,0.1,2.1,0.3c0.6,0.2,1,0.5,1.3,0.8c0.3,0.3,0.5,0.7,0.6,1
	C64.9,5,65,5.5,65,6.2z M61.4,5.5c0-0.5,0-0.9-0.1-1c-0.1-0.1-0.2-0.2-0.4-0.2c-0.2,0-0.4,0.1-0.4,0.2c-0.1,0.1-0.1,0.5-0.1,1v4.6
	c0,0.5,0,0.8,0.1,0.9c0.1,0.1,0.2,0.2,0.4,0.2c0.2,0,0.4-0.1,0.4-0.2c0.1-0.1,0.1-0.4,0.1-0.9V5.5z"/>
<path class="st0" d="M69.9,1.3v1.6h1v1.6h-1V10c0,0.7,0,1,0.1,1.1c0.1,0.1,0.4,0.1,1,0.1v1.6h-1.5c-0.8,0-1.4,0-1.8-0.1
	c-0.4-0.1-0.7-0.2-0.9-0.4c-0.3-0.2-0.4-0.5-0.5-0.7c-0.1-0.3-0.1-0.9-0.1-1.9V4.5h-0.8V2.9h0.8V1.3H69.9z"/>
<path class="st0" d="M75.3,0.4v2.8c0.3-0.2,0.6-0.4,1-0.6c0.4-0.1,0.7-0.2,1.2-0.2c0.6,0,1.2,0.1,1.6,0.4c0.4,0.3,0.7,0.6,0.8,1
	c0.1,0.4,0.1,1,0.1,2v7.1h-3.6V5.7c0-0.6,0-1-0.1-1.1c-0.1-0.2-0.2-0.3-0.5-0.3c-0.2,0-0.4,0.1-0.4,0.3c-0.1,0.2-0.1,0.5-0.1,1v7.3
	h-3.6V0.4H75.3z"/>
<path class="st0" d="M89.4,7.9h-4.7v2.2c0,0.5,0,0.8,0.1,0.9c0.1,0.1,0.2,0.2,0.4,0.2c0.3,0,0.5-0.1,0.5-0.3c0.1-0.2,0.1-0.5,0.1-1
	V8.6h3.4v0.8c0,0.6,0,1.1-0.1,1.5c-0.1,0.3-0.3,0.7-0.6,1.1c-0.3,0.4-0.8,0.7-1.3,0.9c-0.5,0.2-1.2,0.3-2,0.3c-0.8,0-1.4-0.1-2-0.3
	c-0.6-0.2-1-0.5-1.4-0.8c-0.3-0.3-0.5-0.7-0.7-1.1c-0.1-0.4-0.2-1-0.2-1.7v-3c0-0.9,0.1-1.6,0.4-2.1c0.3-0.5,0.7-0.9,1.4-1.2
	c0.6-0.3,1.4-0.4,2.2-0.4c1,0,1.8,0.2,2.5,0.5c0.7,0.3,1.1,0.8,1.4,1.3c0.3,0.5,0.4,1.3,0.4,2.3V7.9z M85.8,6.3V5.5
	c0-0.5,0-0.9-0.1-1c-0.1-0.2-0.2-0.2-0.4-0.2c-0.2,0-0.4,0.1-0.5,0.2c-0.1,0.1-0.1,0.5-0.1,1.1v0.7H85.8z"/>
<path class="st0" d="M94.2,2.6L94,4c0.5-1,1.3-1.5,2.3-1.5V6c-0.7,0-1.1,0.1-1.5,0.2s-0.5,0.4-0.6,0.6c-0.1,0.3-0.1,0.9-0.1,1.9v4
	h-3.6V2.6H94.2z"/>
<polygon class="st0" points="11.1,14.8 11.1,3.7 0,3.7 0,14.8 0,26 11.1,26 22.2,26 22.2,14.8 "/>
<rect x="22.2" y="3.7" class="st1" width="11.1" height="11.1"/>
</svg>
